<svg width="56" height="57" viewBox="0 0 56 57" fill="none" xmlns="http://www.w3.org/2000/svg">
<path d="M22.7497 48.7691C26.9031 47.1357 25.9931 42.6324 23.8931 39.7857C21.8164 36.8691 18.9464 34.8624 16.0531 32.9257C13.9887 31.6246 12.1454 30.0019 10.5931 28.1191C9.93973 27.3491 8.60973 25.9257 9.96307 25.6457C11.3397 25.3657 13.7197 26.7191 14.9331 27.2324C17.0564 28.1191 19.1564 29.1457 21.1164 30.3591L23.4731 26.3924C19.8331 23.9891 15.1664 21.8657 10.8264 21.2357C8.35307 20.8624 5.73973 21.3757 4.89973 24.0591C4.15307 26.3691 5.34307 28.7024 6.6964 30.5224C9.89307 34.7924 14.8631 36.8457 18.5731 40.5324C19.3664 41.3024 20.3231 42.2124 20.7897 43.2857C21.2797 44.3124 21.1631 44.3824 20.0664 44.3824C17.1731 44.3824 13.5564 42.1191 11.1997 40.6257L8.84307 44.5924C12.4131 46.7857 18.3864 50.2157 22.7497 48.7691ZM48.6264 12.3691C49.1397 11.8557 49.1397 11.0157 48.6264 10.5257L45.5931 7.49239C45.3487 7.25685 45.0225 7.12524 44.6831 7.12524C44.3436 7.12524 44.0175 7.25685 43.7731 7.49239L41.3931 9.87239L46.2464 14.7257L48.6264 12.3691ZM25.6664 25.5991V30.4524H30.5197L44.8697 16.1024L40.0164 11.2491L25.6664 25.5991Z" fill="#2091F9"/>
</svg>
