<svg width="390" height="308" viewBox="0 0 390 308" fill="none" xmlns="http://www.w3.org/2000/svg">
<g clip-path="url(#clip0_30_243)">
<path d="M209.775 301.364C288.083 301.364 351.565 283.218 351.565 260.834C351.565 238.45 288.083 220.303 209.775 220.303C131.466 220.303 67.9841 238.45 67.9841 260.834C67.9841 283.218 131.466 301.364 209.775 301.364Z" fill="#F5F5F5"/>
<path d="M344.678 103.167C344.678 103.167 319.561 128.296 333.74 165.584C347.919 202.871 309.433 264.883 309.433 264.883C309.433 264.883 309.838 264.822 310.612 264.688C362.199 255.577 387.831 196.549 359.145 152.699C348.494 136.398 339.723 117.271 344.678 103.167Z" fill="#2091F9"/>
<path d="M344.678 103.167C344.678 103.167 330.499 133.97 344.678 159.099C358.857 184.227 347.109 254.75 309.433 264.883" stroke="#535461" stroke-width="2" stroke-miterlimit="10"/>
<path d="M389.411 204.805C389.411 204.805 360.749 200.237 358.136 225.937C355.523 251.637 303.04 255.196 303.04 255.196C303.04 255.196 303.381 255.431 304.025 255.853C347.372 284.321 388.811 273.986 382.569 236.183C380.231 222.131 380.417 208.015 389.411 204.805Z" fill="#2091F9"/>
<path opacity="0.2" d="M389.411 204.805C389.411 204.805 360.749 200.237 358.136 225.937C355.523 251.638 303.04 255.196 303.04 255.196C303.04 255.196 303.381 255.431 304.025 255.853C347.372 284.321 388.811 273.986 382.569 236.183C380.231 222.131 380.417 208.015 389.411 204.805Z" fill="#F5F5F5"/>
<path d="M389.411 204.805C389.411 204.805 367.162 209.693 368.989 229.933C370.816 250.174 335.936 274.428 303.024 255.188" stroke="#535461" stroke-width="2" stroke-miterlimit="10"/>
<path opacity="0.2" d="M61.8345 6.39655C58.5693 6.28306 55.223 6.39655 52.1603 7.5395C43.8271 10.6482 39.8772 20.8172 41.1614 29.6245C42.4457 38.4317 47.7284 46.0798 53.2096 53.0875C58.6908 60.0952 64.6298 67.0137 67.6357 75.3792C69.1347 79.5578 69.8355 84.2391 68.3123 88.4097C65.9626 94.8418 58.8772 98.4369 52.0753 99.1826C45.2734 99.9284 38.4431 98.4734 31.6169 97.9667C28.7528 97.7641 25.8076 97.7398 23.1095 98.6801C20.1481 99.7055 17.681 101.797 15.4123 103.977C6.56053 112.529 -0.524933 124.202 0.621544 136.458C1.91791 150.352 13.4799 161.336 26.1438 167.225C30.3368 169.179 34.7728 170.759 38.4634 173.548C48.1862 180.9 50.3697 194.676 49.4015 206.839C48.4333 219.002 45.1356 231.178 46.9708 243.236C49.1301 257.259 58.6868 269.925 71.5775 275.842C83.0626 281.111 97.4361 280.783 107.633 273.329C112.604 269.682 116.363 264.652 119.632 259.435C124.567 251.566 128.571 243.149 131.563 234.355C132.985 230.177 134.322 225.682 137.64 222.776C139.665 220.988 142.29 219.987 144.887 219.209C152.714 216.866 160.958 216.222 168.858 214.139C176.758 212.056 184.706 208.173 189 201.23C195.077 191.377 192.241 178.776 192.27 167.184C192.318 140.775 208.114 117.129 213.943 91.3927C215.847 82.9786 216.556 73.6688 212.303 66.1666C209.41 61.0476 204.536 57.3999 199.412 54.5628C188.15 48.3049 175.348 45.5205 162.753 42.809C145.248 39.0478 123.991 38.5614 110.424 26.3942C97.4036 14.7215 79.5907 6.39655 61.8345 6.39655Z" fill="#2091F9"/>
<g opacity="0.5">
<path opacity="0.5" d="M125.332 108.618C125.331 102.253 124.335 95.9262 122.379 89.8688L117.518 74.7875C117.518 74.5362 117.518 74.289 117.518 74.0417C117.667 64.3752 110.136 59.5521 107.236 60.075C104.266 60.61 96.0262 56.4759 96.0262 56.4759V56.5894C95.4613 55.9387 94.9517 55.2418 94.503 54.5061C95.9267 53.4687 97.1287 52.1571 98.0385 50.6483C98.9483 49.1395 99.5474 47.4639 99.8006 45.7202C100.054 43.9764 99.9562 42.1996 99.5132 40.4941C99.0703 38.7887 98.291 37.189 97.2213 35.7892C98.1119 35.1197 98.7912 34.208 99.178 33.1628C99.8505 31.2701 99.336 29.1098 98.2422 27.4237C97.7771 26.7199 97.2334 26.0713 96.6217 25.4904C95.6952 24.5721 94.6832 23.7442 93.5996 23.0181C90.8975 21.1456 87.928 19.5365 84.687 18.9651C84.1262 18.8326 83.5423 18.8326 82.9815 18.9651C82.4948 19.1616 82.0314 19.4117 81.6001 19.7108C79.38 20.9754 76.6171 20.4282 74.0568 20.2944C71.4965 20.1607 68.3852 20.8781 67.575 23.2815C67.3238 24.0232 67.34 24.8257 67.1698 25.5877C66.7647 27.4521 65.3266 28.899 64.2165 30.4513C63.1065 32.0037 62.276 34.0991 63.1997 35.7851C63.5157 36.3526 64.0099 36.8754 64.0099 37.5239C64.0099 37.99 63.7345 38.4075 63.6048 38.8533C63.3253 39.8665 63.8519 40.8798 64.6622 41.6134C65.0113 41.99 65.4224 42.3039 65.8775 42.5415C67.1617 43.1981 68.6404 43.4008 69.9489 44.0087C70.6021 44.3156 71.2013 44.7262 71.7233 45.2247C72.3628 45.8944 72.8626 46.6847 73.1937 47.5497C73.5248 48.4146 73.6805 49.3368 73.6517 50.2626L73.9231 50.2909C73.9231 50.372 73.9231 50.449 73.9231 50.5301C74.2067 50.5625 74.5065 50.5909 74.8022 50.603C75.2276 51.2901 75.7144 51.9372 76.2566 52.5363C76.1648 52.8822 76.0608 53.2334 75.9446 53.5901C74.9926 54.2508 67.2063 59.4386 58.3505 58.1903C48.8991 56.8569 43.4949 98.1978 43.4949 98.1978C43.1446 100.562 42.9739 102.949 42.9844 105.339C42.9439 111.419 44.22 119.375 51.3298 118.204L55.1096 116.959V137.407C55.1096 137.407 55.6484 143.008 53.7605 146.729C51.8727 150.449 59.7036 149.128 59.7036 149.128C59.7036 149.128 60.0033 149.44 60.5543 149.971L60.3801 150.462L60.611 150.697C59.5811 154.219 58.1924 157.627 56.4667 160.866L56.6895 160.979C56.5477 161.251 56.4667 161.385 56.4667 161.385C56.4667 161.385 59.3754 162.872 63.378 164.789C66.5946 175.667 73.6355 200.861 71.3182 205.66L71.383 205.798C71.8165 206.697 74.2391 212.003 73.7489 216.863C73.3073 221.207 79.3193 240.95 81.5636 248.119L80.5022 248.334L84.2819 261.936L83.4717 270.739C83.4717 270.739 78.8817 283.008 89.6821 280.609C100.482 278.209 97.513 268.34 97.513 268.34L97.7844 248.334C97.7844 248.334 96.7433 247.755 95.4591 247.199C94.5759 244.812 92.6516 239.17 92.6516 235.267C92.6516 230.201 89.1392 208.327 89.1392 208.327V208.282V208.197V208.173L89.119 207.881V207.832C89.119 207.561 89.0744 207.188 89.042 206.734V206.71C88.6369 200.796 87.4216 180.705 88.3088 170.232C89.089 169.7 89.9007 169.215 90.7395 168.781C93.3687 175.428 100.146 193.387 99.7128 200.922C99.174 210.244 99.5791 202.924 99.7128 201.733C99.7533 201.364 99.7816 201.81 99.7938 202.811C99.7938 202.993 99.7938 203.196 99.7938 203.41C99.7938 203.625 99.7938 203.864 99.7938 204.112C99.7938 204.359 99.7938 204.626 99.7938 204.922C99.7938 205.063 99.7938 205.206 99.7938 205.352C99.7938 205.644 99.7938 205.949 99.7938 206.268C99.7938 206.427 99.7938 206.589 99.7938 206.754C99.7938 207.565 99.7938 208.465 99.7654 209.401C99.7654 209.587 99.7654 209.776 99.7654 209.968C99.7654 210.54 99.7654 211.123 99.7371 211.715C99.7371 212.526 99.7047 213.312 99.6885 214.127C99.648 215.951 99.5953 217.795 99.5305 219.521C99.5305 219.713 99.5237 219.904 99.5102 220.093C99.4967 220.471 99.4819 220.841 99.4657 221.203C99.4495 221.565 99.4333 221.919 99.417 222.265C99.4008 222.608 99.3833 222.942 99.3644 223.266C99.3441 223.647 99.3198 224.012 99.2996 224.361L97.833 224.15L97.5211 227.522C97.0297 232.876 97.7212 238.272 99.5467 243.329C100.049 244.715 100.438 245.862 100.523 246.271C100.794 247.605 100.523 257.214 100.523 257.214C100.523 257.214 102.143 269.751 109.707 267.347C113.11 266.265 114.763 262.974 115.553 259.675C116.429 255.85 116.102 251.848 114.617 248.217C113.543 245.517 112.446 241.732 113.219 238.806C114.568 233.739 114.568 226.537 114.568 226.537L113.734 226.42C113.942 226.024 114.13 225.618 114.297 225.204C114.297 225.204 114.026 206.799 116.456 204.399C117.793 203.078 117.672 199.905 117.266 197.311C116.688 193.557 116.552 189.748 116.861 185.962C117.027 184.013 117.266 182.314 117.546 181.711C118.259 180.3 118.972 166.082 115.816 159.241L116.464 159.038L116.363 158.535L116.464 158.503C116.94 159.774 117.481 161.02 118.085 162.236C118.244 162.361 118.428 162.452 118.624 162.503C127.37 160.967 127.722 152.8 127.236 148.342C127.605 148.52 127.808 148.634 127.808 148.634L128.618 136.88C129.448 135.003 129.756 132.608 129.736 130.018C129.772 120.761 125.332 108.618 125.332 108.618ZM115.691 142.027C115.091 136.908 114.26 132.089 114.26 132.089L110.209 117.685V112.44L116.634 136.434L115.691 142.027Z" fill="url(#paint0_linear_30_243)"/>
</g>
<path d="M97.4765 220.709L97.1767 224.004C96.7037 229.24 97.3741 234.516 99.1415 239.466C99.6236 240.824 100 241.943 100.081 242.344C100.341 243.649 100.081 253.032 100.081 253.032C100.081 253.032 101.645 265.284 108.941 262.937C112.223 261.883 113.803 258.661 114.58 255.439C115.424 251.702 115.107 247.797 113.673 244.245C112.636 241.606 111.575 237.898 112.324 235.048C113.628 230.096 113.628 223.06 113.628 223.06L97.4765 220.709Z" fill="#5A5773"/>
<path d="M89.6619 164.145C89.6619 164.145 99.8222 188.909 99.2996 198.028C98.777 207.147 99.1699 199.982 99.2996 198.81C99.5305 196.723 99.2996 221.507 98.5177 224.344C98.5177 224.344 109.201 232.163 113.369 221.738C113.369 221.738 113.11 203.755 115.452 201.408C116.74 200.119 116.614 197.015 116.233 194.482C115.671 190.817 115.535 187.1 115.828 183.405C115.986 181.5 116.205 179.822 116.489 179.25C117.271 177.686 118.052 159.962 113.361 155.009L89.6619 164.145Z" fill="#605D82"/>
<path opacity="0.1" d="M99.8221 224.357C100.604 221.491 100.835 196.723 100.604 198.822C100.474 199.994 100.081 207.164 100.604 198.04C101.127 188.917 90.9663 164.157 90.9663 164.157L113.697 155.41C113.592 155.277 113.483 155.151 113.373 155.033L89.6659 164.157C89.6659 164.157 99.8262 188.921 99.3036 198.04C98.781 207.16 99.174 199.994 99.3036 198.822C99.5345 196.735 99.3036 221.519 98.5217 224.357C98.5217 224.357 102.788 227.477 106.981 227.145C103.249 226.865 99.8221 224.357 99.8221 224.357Z" fill="black"/>
<path d="M80.802 244.427L84.448 257.721L83.6662 266.322C83.6662 266.322 79.2383 278.31 89.6578 275.964C100.077 273.617 97.2132 263.975 97.2132 263.975L97.4725 244.427C97.4725 244.427 93.3039 242.08 91.4808 242.344C89.6578 242.607 80.802 244.427 80.802 244.427Z" fill="#5A5773"/>
<path d="M62.827 157.891C62.827 157.891 74.8103 196.727 71.9462 202.721C71.9462 202.721 74.8103 208.457 74.2918 213.665C73.7732 218.873 82.6291 246.766 82.6291 246.766L95.6576 244.419C95.6576 244.419 92.5301 236.601 92.5301 231.648C92.5301 226.695 89.1433 205.303 89.1433 205.303C89.1433 205.303 86.2792 166.204 89.6659 162.033L62.827 157.891Z" fill="#605D82"/>
<g opacity="0.1">
<path opacity="0.1" d="M88.6531 165.211C86.4938 174.063 88.88 206.637 88.88 206.637C88.88 206.637 92.2667 228.008 92.2667 232.981C92.2667 236.763 94.0857 242.21 94.9486 244.577L95.6535 244.452C95.6535 244.452 92.526 236.633 92.526 231.68C92.526 226.728 89.1392 205.336 89.1392 205.336C89.1392 205.336 86.9597 175.566 88.6531 165.211Z" fill="black"/>
<path opacity="0.1" d="M71.9462 202.721L72.011 202.855C72.0312 202.721 72.0515 202.58 72.0637 202.45C72.0292 202.542 71.99 202.633 71.9462 202.721Z" fill="black"/>
<path opacity="0.1" d="M89.0745 163.314C89.1928 162.864 89.3919 162.44 89.6619 162.061L62.827 157.891C62.827 157.891 62.985 158.398 63.2564 159.301L89.0745 163.314Z" fill="black"/>
</g>
<path d="M125.353 143.815C125.353 143.815 129.262 158.406 117.538 160.497C117.348 160.447 117.17 160.359 117.015 160.238C117.015 160.238 110.242 146.944 115.452 141.731L125.353 143.815Z" fill="#FAC3CA"/>
<path d="M77.4152 46.8621C77.4152 46.8621 78.197 57.8052 69.6005 63.0215C61.004 68.2378 87.8307 82.5693 87.8307 82.5693L101.9 60.152C101.9 60.152 95.9127 60.9261 92.2667 50.5098L77.4152 46.8621Z" fill="#FAC3CA"/>
<path opacity="0.1" d="M71.6829 63.7957C71.6829 63.7957 84.9707 91.4252 96.954 65.3601L115.452 157.105C115.452 157.105 86.7896 165.969 86.5344 170.139C86.2792 174.31 57.6213 159.455 57.6213 159.455C57.6213 159.455 63.8723 147.985 62.3126 140.949C60.7529 133.913 71.6829 63.7957 71.6829 63.7957Z" fill="black"/>
<path d="M71.6829 63.2728C71.6829 63.2728 84.9707 90.9023 96.954 64.8373L115.452 156.586C115.452 156.586 86.7896 165.45 86.5344 169.62C86.2792 173.791 57.6213 158.932 57.6213 158.932C57.6213 158.932 63.8723 147.462 62.3126 140.426C60.7529 133.39 71.6829 63.2728 71.6829 63.2728Z" fill="#E1E7EF"/>
<path d="M84.7114 251.727C84.7114 251.727 81.3246 244.168 89.1393 244.168C96.9539 244.168 95.6535 250.944 95.6535 250.944L84.7114 251.727Z" fill="#5A5773"/>
<path d="M102.427 232.175C102.427 232.175 99.2996 224.093 107.118 223.834C114.937 223.574 111.028 231.129 111.028 231.129L102.427 232.175Z" fill="#5A5773"/>
<path opacity="0.1" d="M95.7832 57.3999C95.7832 57.3999 103.728 61.453 106.596 60.918C109.464 60.383 117.015 65.3479 116.497 75.2535L121.204 90.0309C123.087 95.9562 124.044 102.137 124.04 108.355C124.04 108.355 130.814 127.12 127.168 135.461L126.386 146.931C126.386 146.931 120.394 143.543 114.139 144.585L115.715 135.218L108.666 108.626L96.9418 80.2145L95.7832 57.3999Z" fill="black"/>
<path d="M95.7832 56.8852C95.7832 56.8852 103.728 60.9382 106.596 60.4032C109.464 59.8682 117.015 64.8332 116.497 74.7388L121.204 89.5162C123.087 95.4415 124.044 101.622 124.04 107.84C124.04 107.84 130.814 126.605 127.168 134.947L126.386 146.417C126.386 146.417 120.394 143.028 114.139 144.07L115.703 134.687L108.666 108.103L96.954 79.6916L95.7832 56.8852Z" fill="#67647E"/>
<path opacity="0.1" d="M108.941 88.5556V118.009L112.851 132.085C112.851 132.085 115.456 147.462 114.674 152.156C113.892 156.849 101.386 157.891 97.9992 153.98C94.6124 150.069 96.4354 116.692 96.4354 116.692L95.7832 67.8324L96.3058 66.268L108.941 88.5556Z" fill="black"/>
<path d="M109.476 87.2546V116.708L113.385 130.784C113.385 130.784 115.99 146.161 115.208 150.855C114.427 155.548 101.921 156.59 98.5339 152.679C95.1471 148.767 96.9701 115.391 96.9701 115.391L96.3179 66.5193L109.476 87.2546Z" fill="#67647E"/>
<path opacity="0.1" d="M56.965 111.755L65.3022 137.695L61.3929 148.772C61.3929 148.772 79.8905 168.319 91.6145 158.937C91.6145 158.937 92.919 119.055 90.31 109.672C87.7011 100.289 75.1992 68.7363 75.1992 68.7363L72.6105 60.4073L58.8042 68.2256L56.965 111.755Z" fill="black"/>
<path d="M56.3127 110.45V135.984C56.3127 135.984 56.8353 141.46 55.0083 145.108C53.1812 148.755 60.7406 147.454 60.7406 147.454C60.7406 147.454 79.2382 167.002 90.9623 157.619C90.9623 157.619 92.2667 117.737 89.6578 108.355C87.0488 98.9719 74.547 67.419 74.547 67.419L71.9421 59.0779L58.1357 66.8962L56.3127 110.45Z" fill="#67647E"/>
<path opacity="0.1" d="M76.5037 54.5426C76.5037 54.5426 68.5594 60.4073 59.4402 59.1022C50.3211 57.7972 45.1113 98.2018 45.1113 98.2018C45.1113 98.2018 41.7246 119.055 52.6667 117.231L76.8967 109.149C76.8967 109.149 71.6869 103.673 72.4688 96.6374L60.7407 101.327L61.2673 78.9135L76.5037 54.5426Z" fill="black"/>
<path opacity="0.1" d="M45.6299 97.679C45.6299 97.679 42.2431 118.532 53.1853 116.708L77.4152 108.626C77.4152 108.626 72.2054 103.155 72.9873 96.1145L61.2673 100.808L45.6299 97.679Z" fill="black"/>
<path d="M72.4121 98.8625C72.4121 98.8625 80.5428 88.1665 86.5304 93.3017C92.518 98.4369 74.5592 107.848 74.5592 107.848L72.4121 98.8625Z" fill="#FAC3CA"/>
<path d="M76.5037 54.0197C76.5037 54.0197 68.5594 59.8845 59.4402 58.5794C50.3211 57.2743 45.1113 97.679 45.1113 97.679C45.1113 97.679 41.7246 118.532 52.6667 116.708L76.8967 108.626C76.8967 108.626 71.6869 103.151 72.4688 96.1145L60.7407 100.808L61.2673 78.3906L74.5551 67.4474L76.5037 54.0197Z" fill="#67647E"/>
<path opacity="0.1" d="M92.5261 51.0205L77.6746 47.3728C77.6746 47.3728 78.4483 48.2482 77.5449 51.673C79.9351 54.4169 82.8722 58.0606 86.7937 58.0606C89.6001 58.0659 92.3323 57.1599 94.58 55.4788C93.7413 54.0688 93.0528 52.5745 92.5261 51.0205Z" fill="black"/>
<path d="M86.5344 57.5418C93.7298 57.5418 99.5629 51.7061 99.5629 44.5073C99.5629 37.3085 93.7298 31.4727 86.5344 31.4727C79.3389 31.4727 73.5059 37.3085 73.5059 44.5073C73.5059 51.7061 79.3389 57.5418 86.5344 57.5418Z" fill="#FAC3CA"/>
<path opacity="0.1" d="M91.4728 38.8492C94.4949 38.3345 97.8169 36.993 98.8297 34.0991C99.4779 32.2469 98.9836 30.1393 97.9263 28.4897C96.8689 26.8401 95.3133 25.5715 93.709 24.4367C91.1041 22.6047 88.2318 21.0321 85.0963 20.4809C84.5556 20.3516 83.9921 20.3516 83.4515 20.4809C82.9813 20.6734 82.5343 20.9181 82.1187 21.2104C79.9756 22.4466 77.3099 21.9116 74.8266 21.7819C72.3432 21.6522 69.3656 22.3534 68.5837 24.7001C68.3407 25.4256 68.3569 26.2078 68.1786 26.9536C67.7735 28.7775 66.4002 30.196 65.3428 31.7159C64.2855 33.2358 63.4712 35.2907 64.3624 36.9281C64.6663 37.4834 65.1727 37.9941 65.1727 38.6263C65.0945 39.0757 64.9583 39.513 64.7676 39.9274C64.3989 41.273 65.4725 42.6307 66.7121 43.2711C67.9518 43.9115 69.3778 44.1101 70.6417 44.7059C71.8248 45.2899 72.8152 46.2016 73.4953 47.3326C74.1755 48.4635 74.5166 49.7661 74.4782 51.0853C75.6287 51.2191 76.9696 51.288 77.7475 50.4288C78.0959 50.0437 78.266 49.529 78.582 49.1196C78.9871 48.5846 79.6191 48.2685 80.1376 47.8389C82.8641 45.5975 80.9276 42.501 82.4711 40.0854C83.2813 38.8411 84.5696 39.2221 85.8741 39.2424C87.7485 39.2863 89.6229 39.1546 91.4728 38.8492Z" fill="black"/>
<path d="M91.2135 38.5898C94.2357 38.0751 97.5576 36.7336 98.5704 33.8397C99.2186 31.9875 98.7243 29.8799 97.667 28.2303C96.6096 26.5807 95.054 25.3121 93.4497 24.1773C90.8448 22.3453 87.9726 20.7727 84.837 20.2215C84.2963 20.0922 83.7328 20.0922 83.1922 20.2215C82.7221 20.414 82.275 20.6587 81.8594 20.951C79.7163 22.1872 77.0507 21.6522 74.5673 21.5225C72.0839 21.3928 69.1063 22.094 68.3245 24.4407C68.0814 25.1662 68.0976 25.9484 67.9194 26.6942C67.5142 28.5181 66.1409 29.9366 65.0836 31.4565C64.0262 32.9764 63.2119 35.0313 64.1032 36.6687C64.407 37.224 64.9134 37.7347 64.9134 38.3669C64.8352 38.8163 64.699 39.2537 64.5083 39.668C64.1396 41.0136 65.2132 42.3713 66.4528 43.0117C67.6925 43.6521 69.1185 43.8507 70.3825 44.4465C71.5703 45.0299 72.565 45.9434 73.2476 47.0777C73.9301 48.2119 74.2715 49.5189 74.2311 50.8422C75.3816 50.9759 76.7225 51.0448 77.5003 50.1856C77.8487 49.8005 78.0189 49.2858 78.3349 48.8764C78.74 48.3414 79.372 48.0253 79.8905 47.5957C82.6169 45.3544 80.6805 42.2578 82.224 39.8422C83.0342 38.5979 84.3225 38.9789 85.627 38.9992C87.4978 39.037 89.3681 38.8999 91.2135 38.5898Z" fill="#4A4347"/>
<path opacity="0.1" d="M106.985 82.4315C106.985 82.4315 109.849 97.2899 108.548 103.025C107.754 106.361 107.871 109.85 108.889 113.125" fill="black"/>
<path opacity="0.1" d="M60.684 88.6853C60.684 88.6853 59.4362 98.5909 61.5144 100.674L60.684 88.6853Z" fill="black"/>
<path d="M133.431 210.759C133.592 210.759 133.746 210.695 133.86 210.581C133.974 210.467 134.038 210.312 134.038 210.151C134.038 209.989 133.974 209.835 133.86 209.721C133.746 209.607 133.592 209.543 133.431 209.543C133.269 209.543 133.115 209.607 133.001 209.721C132.887 209.835 132.823 209.989 132.823 210.151C132.823 210.312 132.887 210.467 133.001 210.581C133.115 210.695 133.269 210.759 133.431 210.759Z" fill="black"/>
<g opacity="0.5">
<path opacity="0.5" d="M320.541 139.932V139.595L210.01 54.5628C209.94 54.5112 209.855 54.4833 209.769 54.4833C209.682 54.4833 209.597 54.5112 209.527 54.5628L98.9917 139.595V271.4H99.2024V271.611H320.756V139.806L320.541 139.932Z" fill="url(#paint1_linear_30_243)"/>
</g>
<path d="M316.725 267.724H102.824V140.459L209.775 58.1822L316.725 140.459V267.724Z" fill="white"/>
<path d="M309.028 260.181H110.521V142.076L209.775 65.7209L309.028 142.076V260.181Z" fill="#E0E0E0"/>
<path d="M243.447 63.9562L122.358 95.7153L162.732 249.793L283.821 218.034L243.447 63.9562Z" fill="#2091F9"/>
<path d="M272.973 87.364H147.792V246.648H272.973V87.364Z" fill="#F5F5F5"/>
<path opacity="0.05" d="M103.837 140.661L210.787 204.294L103.837 267.927V140.661Z" fill="black"/>
<path d="M103.027 140.661L209.977 204.294L103.027 267.927V140.661Z" fill="white"/>
<path opacity="0.05" d="M316.117 140.661L209.167 204.294L316.117 267.927V140.661Z" fill="black"/>
<path d="M316.928 140.661L209.977 204.294L316.928 267.927V140.661Z" fill="white"/>
<path opacity="0.05" d="M103.027 265.9L209.977 182.408L316.928 265.9H103.027Z" fill="black"/>
<path d="M103.027 267.927L209.977 184.434L316.928 267.927H103.027Z" fill="white"/>
<path d="M124.761 277.593C124.761 277.593 119.389 259.354 125.77 245.923C128.481 240.308 129.298 233.965 128.099 227.846C127.508 224.946 126.652 222.107 125.543 219.363" stroke="#535461" stroke-width="2" stroke-miterlimit="10"/>
<path d="M129.509 210.876C129.509 213.113 125.458 219.594 125.458 219.594C125.458 219.594 121.407 213.109 121.407 210.876C121.407 209.801 121.834 208.77 122.593 208.01C123.353 207.25 124.383 206.823 125.458 206.823C126.532 206.823 127.563 207.25 128.322 208.01C129.082 208.77 129.509 209.801 129.509 210.876Z" fill="#6C63FF"/>
<path d="M136.214 223.262C134.998 225.139 128.079 228.381 128.079 228.381C128.079 228.381 128.205 220.737 129.42 218.861C130.026 218.012 130.935 217.429 131.96 217.235C132.984 217.04 134.044 217.247 134.919 217.814C135.794 218.381 136.417 219.264 136.658 220.279C136.899 221.293 136.74 222.362 136.214 223.262Z" fill="#6C63FF"/>
<path d="M135.906 244.423C133.909 245.428 126.301 244.735 126.301 244.735C126.301 244.735 130.267 238.202 132.26 237.197C132.737 236.93 133.263 236.762 133.806 236.704C134.35 236.645 134.9 236.698 135.422 236.858C135.945 237.018 136.43 237.282 136.848 237.634C137.266 237.986 137.609 238.42 137.855 238.908C138.101 239.396 138.246 239.929 138.281 240.475C138.316 241.021 138.24 241.568 138.058 242.084C137.875 242.599 137.591 243.073 137.221 243.476C136.851 243.878 136.404 244.202 135.906 244.427V244.423Z" fill="#6C63FF"/>
<path d="M132.082 260.388C130.283 261.717 122.667 262.317 122.667 262.317C122.667 262.317 125.47 255.208 127.269 253.879C128.134 253.301 129.189 253.079 130.214 253.258C131.238 253.437 132.155 254.003 132.774 254.84C133.393 255.677 133.666 256.72 133.537 257.753C133.408 258.785 132.887 259.729 132.082 260.388Z" fill="#6C63FF"/>
<path d="M119.568 228.811C121.188 230.367 128.638 231.984 128.638 231.984C128.638 231.984 126.811 224.563 125.207 223.007C124.426 222.317 123.41 221.954 122.37 221.994C121.329 222.033 120.344 222.472 119.618 223.22C118.892 223.967 118.482 224.965 118.473 226.007C118.463 227.049 118.855 228.055 119.568 228.815V228.811Z" fill="#6C63FF"/>
<path d="M115.33 247.54C117.327 248.545 124.935 247.852 124.935 247.852C124.935 247.852 120.969 241.318 118.976 240.313C118.024 239.883 116.943 239.837 115.959 240.185C114.974 240.533 114.161 241.248 113.691 242.181C113.221 243.114 113.129 244.193 113.434 245.192C113.739 246.191 114.419 247.034 115.33 247.544V247.54Z" fill="#6C63FF"/>
<path d="M113.71 266.305C115.508 267.635 123.124 268.235 123.124 268.235C123.124 268.235 120.321 261.126 118.522 259.796C118.098 259.449 117.607 259.191 117.08 259.039C116.553 258.887 116 258.844 115.456 258.912C114.912 258.98 114.387 259.158 113.913 259.435C113.44 259.712 113.027 260.082 112.701 260.524C112.375 260.965 112.141 261.468 112.015 262.002C111.889 262.536 111.873 263.09 111.967 263.631C112.061 264.171 112.264 264.687 112.564 265.147C112.863 265.607 113.253 266.001 113.71 266.305Z" fill="#6C63FF"/>
<path opacity="0.5" d="M205.318 94.6595H155.084V98.7125H205.318V94.6595Z" fill="#6C63FF"/>
<path opacity="0.5" d="M263.655 110.872H155.084V114.925H263.655V110.872Z" fill="#6C63FF"/>
<path opacity="0.5" d="M263.655 121.41H155.084V125.463H263.655V121.41Z" fill="#6C63FF"/>
<path opacity="0.4" d="M263.655 131.947H155.084V136H263.655V131.947Z" fill="#6C63FF"/>
<path opacity="0.4" d="M263.655 142.485H155.084V146.538H263.655V142.485Z" fill="#6C63FF"/>
<path opacity="0.3" d="M217.067 153.023H155.084V157.076H217.067V153.023Z" fill="#6C63FF"/>
<path opacity="0.3" d="M239.753 163.561H155.084V167.614H239.753V163.561Z" fill="#6C63FF"/>
</g>
<defs>
<linearGradient id="paint0_linear_30_243" x1="42.9885" y1="149.914" x2="129.691" y2="149.914" gradientUnits="userSpaceOnUse">
<stop stop-color="#808080" stop-opacity="0.25"/>
<stop offset="0.54" stop-color="#808080" stop-opacity="0.12"/>
<stop offset="1" stop-color="#808080" stop-opacity="0.1"/>
</linearGradient>
<linearGradient id="paint1_linear_30_243" x1="141325" y1="160848" x2="141325" y2="44522.2" gradientUnits="userSpaceOnUse">
<stop stop-color="#808080" stop-opacity="0.25"/>
<stop offset="0.54" stop-color="#808080" stop-opacity="0.12"/>
<stop offset="1" stop-color="#808080" stop-opacity="0.1"/>
</linearGradient>
<clipPath id="clip0_30_243">
<rect width="389" height="295" fill="white" transform="translate(0.5 6.36417)"/>
</clipPath>
</defs>
</svg>
