<svg width="42" height="42" viewBox="0 0 42 42" fill="none" xmlns="http://www.w3.org/2000/svg">
<path d="M35.7506 4.9895H6.29145C5.58299 4.9895 5.01062 5.56187 5.01062 6.27033V35.7294C5.01062 36.4379 5.58299 37.0103 6.29145 37.0103H35.7506C36.459 37.0103 37.0314 36.4379 37.0314 35.7294V6.27033C37.0314 5.56187 36.459 4.9895 35.7506 4.9895ZM32.0522 14.3356H29.4945C27.4892 14.3356 27.101 15.2882 27.101 16.6891V19.7751H31.8881L31.2637 24.6062H27.101V37.0103H22.1097V24.6102H17.935V19.7751H22.1097V16.2128C22.1097 12.0781 24.6354 9.82464 28.3257 9.82464C30.0949 9.82464 31.6119 9.95673 32.0562 10.0168V14.3356H32.0522Z" fill="white"/>
</svg>
