<svg width="42" height="42" viewBox="0 0 42 42" fill="none" xmlns="http://www.w3.org/2000/svg">
<path d="M35.7384 4.9895H6.27924C5.57078 4.9895 4.99841 5.56187 4.99841 6.27033V35.7294C4.99841 36.4379 5.57078 37.0103 6.27924 37.0103H35.7384C36.4468 37.0103 37.0192 36.4379 37.0192 35.7294V6.27033C37.0192 5.56187 36.4468 4.9895 35.7384 4.9895ZM14.4966 32.2752H9.74549V16.9933H14.4966V32.2752ZM12.123 14.9039C11.5784 14.9039 11.046 14.7424 10.5931 14.4398C10.1403 14.1372 9.7873 13.7072 9.57887 13.204C9.37044 12.7008 9.31591 12.1471 9.42216 11.6129C9.52842 11.0787 9.79069 10.5881 10.1758 10.2029C10.5609 9.8178 11.0516 9.55553 11.5858 9.44927C12.12 9.34302 12.6737 9.39755 13.1769 9.60598C13.6801 9.81441 14.1101 10.1674 14.4127 10.6202C14.7153 11.0731 14.8768 11.6055 14.8768 12.1501C14.8728 13.6711 13.64 14.9039 12.123 14.9039ZM32.2841 32.2752H27.537V24.8424C27.537 23.0692 27.505 20.7918 25.0674 20.7918C22.5978 20.7918 22.2176 22.721 22.2176 24.7143V32.2752H17.4745V16.9933H22.0295V19.0826H22.0935C22.7259 17.8819 24.2749 16.613 26.5884 16.613C31.3995 16.613 32.2841 19.7791 32.2841 23.8938V32.2752Z" fill="white"/>
</svg>
